<?xml version="1.0" encoding="UTF-8" standalone="no"?>
<!--

       GENERAL STUART'S REEL
       8x32 R                        
       Castle Menzies                                                          1749           RSCDS Book 10.3                                                                                     
       Dancedata ID:  2428 


       SVG crib 45  created by Keith Rose  10.05.23   22:43:42           Prog V 249 
       keith@krose.plus.com
-->

<svg
   viewBox="-1 -1  272  73.73"
   version="1.1"
   id="svg41"
   sodipodi:docname="friday07.svg"
   inkscape:version="1.4.3 (0d15f75042, 2025-12-25)"
   xmlns:inkscape="http://www.inkscape.org/namespaces/inkscape"
   xmlns:sodipodi="http://sodipodi.sourceforge.net/DTD/sodipodi-0.dtd"
   xmlns="http://www.w3.org/2000/svg"
   xmlns:svg="http://www.w3.org/2000/svg">
  <defs
     id="defs41" />
  <sodipodi:namedview
     id="namedview41"
     pagecolor="#ffffff"
     bordercolor="#000000"
     borderopacity="0.25"
     inkscape:showpageshadow="2"
     inkscape:pageopacity="0.0"
     inkscape:pagecheckerboard="0"
     inkscape:deskcolor="#d1d1d1"
     inkscape:zoom="4.7365756"
     inkscape:cx="130.05176"
     inkscape:cy="52.041817"
     inkscape:window-width="1920"
     inkscape:window-height="1137"
     inkscape:window-x="0"
     inkscape:window-y="0"
     inkscape:window-maximized="1"
     inkscape:current-layer="g41" />
  <title
     id="title1">   GENERAL STUART'S REEL    -    8x32 R                           </title>
  <g
     stroke="black"
     stroke-width=".4"
     font-family="Helvetica"
     fill="black"
     transform="translate(0, 18 )"
     id="g41">
    <rect
       x="0.00"
       y="-18.00"
       width="270"
       height="71.73"
       stroke="none"
       fill="white"
       id="rect1" />
    <rect
       x="0.00"
       y="-18.00"
       width="270"
       height="18"
       fill="white"
       id="rect2" />
    <text
       x="5"
       y="-5"
       font-size="10px"
       stroke-width="0.001"
       font-weight="bold"
       id="text2" />
    <text
       x="184.45"
       y="-5"
       font-size="6.5px"
       stroke-width="0.001"
       text-anchor="middle"
       id="text3"
       style="white-space:pre;inline-size:56.7048"
       xml:space="preserve" />
    <text
       x="265"
       y="-5"
       font-size="10px"
       font-weight="bold"
       stroke-width="0.001"
       text-anchor="end"
       id="text4">R</text>
    <rect
       x="0"
       y="0"
       width="270"
       height="45"
       fill="white"
       id="rect4" />
    <line
       stroke-width=".7"
       stroke="rgb(0,0,0)"
       x1="9.00"
       y1="36.00"
       x2="11.70"
       y2="31.32"
       id="line4" />
    <circle
       cx="9.00"
       cy="36.00"
       r="3.5"
       fill="white"
       stroke="rgb(0,0,0)"
       id="circle4" />
    <text
       xml:space="preserve"
       x="8.80"
       y="38.50"
       stroke="rgb(0,0,0)"
       fill="rgb(0,0,0)"
       font-size="6.5"
       stroke-width="0.001"
       text-anchor="middle"
       id="text5">1</text>
    <line
       stroke-width=".7"
       stroke="rgb(0,0,0)"
       x1="27.00"
       y1="9.00"
       x2="24.30"
       y2="13.68"
       id="line5" />
    <polygon
       fill="white"
       stroke="rgb(0,0,0)"
       points="28.24,13.61 31.61,7.76 25.76,4.39 22.39,10.24 "
       id="polygon5" />
    <text
       xml:space="preserve"
       x="26.80"
       y="11.50"
       stroke="rgb(0,0,0)"
       fill="rgb(0,0,0)"
       font-size="6.5"
       stroke-width="0.001"
       text-anchor="middle"
       id="text6">2</text>
    <circle
       cx="40.50"
       cy="36.00"
       r="3.5"
       fill="white"
       stroke="rgb(0,0,0)"
       id="circle7" />
    <text
       xml:space="preserve"
       x="40.30"
       y="38.50"
       stroke="rgb(0,0,0)"
       fill="rgb(0,0,0)"
       font-size="6.5"
       stroke-width="0.001"
       text-anchor="middle"
       id="text8">1</text>
    <path
       fill="none"
       style="stroke:rgb(0,0,0)"
       d="M 36.00 22.50   c 0 -6.30 9.00 -6.30 9.00  0"
       id="path9" />
    <path
       stroke-width="0.001"
       fill="rgb(0,0,0)"
       d="M  45.445  20.181  l -0.781  0.960 -2.276 -0.971  2.696  2.670  1.141 -3.618 -0.781  0.960 "
       id="path10" />
    <path
       fill="none"
       style="stroke-dasharray: 3, 2;"
       stroke="rgb(0,0,0)"
       d="M 54.00 0.00  L 54.00 45.00"
       id="path11" />
    <line
       stroke-width=".7"
       stroke="rgb(0,0,0)"
       x1="65.25"
       y1="9.00"
       x2="65.25"
       y2="14.40"
       id="line11" />
    <polygon
       fill="white"
       stroke="rgb(0,0,0)"
       points="68.62,12.38 68.63,5.63 61.88,5.62 61.87,12.37 "
       id="polygon11" />
    <line
       stroke-width=".7"
       stroke="rgb(0,0,0)"
       x1="65.25"
       y1="36.00"
       x2="65.25"
       y2="30.60"
       id="line12" />
    <circle
       cx="65.25"
       cy="36.00"
       r="3.5"
       fill="white"
       stroke="rgb(0,0,0)"
       id="circle12" />
    <path
       fill="none"
       stroke="rgb(0,0,0)"
       d="M 99.00 0.00  L 99.00 45.00"
       id="path17" />
    <text
       x="106.91"
       y="27.00"
       font-size="10"
       stroke-width="0.001"
       font-weight="bold"
       style="fill:rgb(0,0,0)"
       id="text17">T</text>
    <line
       stroke="rgb(0,0,0)"
       x1="112.05"
       y1="16.20"
       x2="117.45"
       y2="16.20"
       id="line18" />
    <line
       stroke="rgb(0,0,0)"
       x1="117.45"
       y1="16.20"
       x2="117.45"
       y2="21.60"
       id="line19" />
    <path
       stroke-width="0.001"
       fill="rgb(0,0,0)"
       d="M 124.725  20.360  l  0.551 -1.108  2.433  0.448 -3.216 -2.013 -0.319  3.781  0.551 -1.108 "
       id="path19" />
    <path
       fill="none"
       stroke="rgb(0,0,0)"
       d="M 135.45 18.00   C 133.65 24.75 128.70 24.75 124.65 18.00 "
       id="path20" />
    <text
       x="143.50"
       y="27.00"
       font-size="10"
       stroke-width="0.001"
       font-weight="bold"
       style="fill:rgb(0,0,0)"
       id="text20">T</text>
    <line
       stroke="rgb(0,0,0)"
       x1="141.30"
       y1="16.20"
       x2="146.70"
       y2="16.20"
       id="line21" />
    <line
       stroke="rgb(0,0,0)"
       x1="141.30"
       y1="16.20"
       x2="141.30"
       y2="21.60"
       id="line22" />
    <path
       fill="none"
       stroke="rgb(0,0,0)"
       d="M 173.25 0.00  L 173.25 45.00"
       id="path22" />
    <text
       x="15.316415"
       y="26.788877"
       font-size="10px"
       stroke-width="0.001"
       font-weight="bold"
       style="fill:#000000"
       id="text25">S</text>
    <path
       fill="none"
       stroke="rgb(0,0,0)"
       d="M 229.50 0.00  L 229.50 45.00"
       id="path25" />
    <circle
       cx="247.5"
       cy="13.5"
       r="4.50"
       fill="white"
       stroke="rgb(0,0,0)"
       id="circle25" />
    <circle
       cx="238.5"
       cy="13.5"
       r="4.50"
       fill="white"
       stroke="rgb(0,0,0)"
       id="circle26" />
    <line
       stroke="rgb(0,0,0)"
       x1="235.32"
       y1="16.68"
       x2="238.50"
       y2="19.86"
       id="line26" />
    <circle
       cx="243.00"
       cy="4.50"
       r="1.69"
       fill="none"
       stroke="rgb(0,0,0)"
       id="circle27" />
    <circle
       cx="243.00"
       cy="4.50"
       r="0.51"
       fill="rgb(0,0,0)"
       stroke="rgb(0,0,0)"
       id="circle28" />
    <circle
       cx="238.5"
       cy="31.49999"
       r="4.50"
       fill="white"
       stroke="rgb(0,0,0)"
       id="circle29" />
    <circle
       cx="247.5"
       cy="31.50001"
       r="4.50"
       fill="white"
       stroke="rgb(0,0,0)"
       id="circle30" />
    <line
       stroke="rgb(0,0,0)"
       x1="250.68"
       y1="28.32"
       x2="247.50"
       y2="25.14"
       id="line30" />
    <line
       stroke="rgb(0,0,0)"
       x1="180.00"
       y1="16.20"
       x2="185.40"
       y2="16.20"
       id="line31" />
    <line
       stroke="rgb(0,0,0)"
       x1="185.40"
       y1="16.20"
       x2="185.40"
       y2="21.60"
       id="line32" />
    <line
       stroke="rgb(0,0,0)"
       x1="201.60"
       y1="16.20"
       x2="207.00"
       y2="16.20"
       id="line33" />
    <line
       stroke="rgb(0,0,0)"
       x1="201.60"
       y1="16.20"
       x2="201.60"
       y2="21.60"
       id="line34" />
    <text
       x="255.11"
       y="27.00"
       font-size="10"
       stroke-width="0.001"
       font-weight="bold"
       style="fill:rgb(0,0,0)"
       id="text34">X</text>
    <text
       x="261.80"
       y="28.80"
       font-size="6.5"
       stroke-width="0.001"
       style="fill:rgb(0,0,0)"
       id="text35">R</text>
    <path
       stroke-width="0.001"
       fill="rgb(0,0,0)"
       d="M 166.007  17.226  l  1.217 -0.224  1.102  2.215 -0.319 -3.781 -3.216  2.013  1.217 -0.224 "
       id="path35" />
    <path
       fill="none"
       stroke="rgb(0,0,0)"
       d="M 157.50 18.00   C 159.75 22.50 165.15 22.95 167.85 15.75 "
       id="path36" />
    <path
       stroke-width="0.001"
       fill="rgb(0,0,0)"
       d="M 160.243  26.874  l -1.217  0.224 -1.102 -2.215  0.319  3.781  3.216 -2.013 -1.217  0.224 "
       id="path37" />
    <path
       fill="none"
       style="stroke-dasharray: 2, 1.2;"
       stroke="rgb(0,0,0)"
       d="M 168.75 26.10   C 166.50 21.60 161.10 21.15 158.40 28.35 "
       id="path38" />
    <path
       stroke-width="0.001"
       fill="rgb(0,0,0)"
       d="M 136.725  22.840  l -0.551  1.108 -2.433 -0.448  3.216  2.013  0.319 -3.781 -0.551  1.108 "
       id="path39" />
    <path
       fill="none"
       style="stroke-dasharray: 2, 1.2;"
       stroke="rgb(0,0,0)"
       d="M 126.00 25.20   C 127.80 18.45 132.75 18.45 136.80 25.20 "
       id="path40" />
  </g>
</svg>
